<svg version="1.2" xmlns="http://www.w3.org/2000/svg" viewBox="0 0 2668 2668" width="2668" height="2668"><style>.a{fill:#fff}.b{fill:#112b3c}</style><path class="a" d="m2668 0v2668h-2668v-2668z"/><path fill-rule="evenodd" class="b" d="m502.8 1438.9c49.3-53.8 137.5-53.8 188.7 1.1 12.1 12.9 464.5 680.4 475.7 697 60.7 88.9 0.7 207.8-105.3 207.8-17.7 0-899.7 0-931.6 0-105.5 0-166.7-118.9-106.8-207.8 14.8-21.9 470.8-689.1 479.3-698.1zm1476.5 0c49.4-53.8 137.5-53.8 188.7 1.1 12.1 12.9 464.6 680.4 475.8 697 60.7 88.9 0.6 207.8-105.3 207.8-17.8 0-899.8 0-931.7 0-105.4 0-166.6-118.9-106.7-207.8 14.8-21.9 470.8-689.1 479.2-698.1zm-1222.7-370.2c5.3-8.4 470.8-688.5 470.8-688.5 53.4-75 164.6-75 213.5 0 0 0 466.6 677.1 473.2 688.5 23.4 34.9 23.4 97.7 0 131.6-5.5 7.9-241 351.4-377.7 551v-564.6c40.2-8.3 70.4-44 70.4-86.7 0-49-39.6-88.5-88.5-88.5-49 0-88.6 39.5-88.6 88.5 0 42.7 30.1 78.3 70.2 86.6v617.9c-34.5 50.4-57.1 83.5-59 86.4-21.1 32.8-53.5 51.5-88 56.1v-995.8c40.9-8.2 71.6-44.2 71.6-87.5 0-49.4-39.8-89.2-89.2-89.2-49.3 0-89.2 39.8-89.2 89.2 0 42.8 30.1 78.5 70.4 87.2v995.6c-33.9-5.1-66.3-23.9-88.6-56.1-1.9-2.9-24.3-35.7-58.6-85.7v-456.5c40.3-8.5 70.3-44 70.3-86.7 0-49-39.5-88.6-88.5-88.6-49 0-88.5 39.6-88.5 88.6 0 42.1 29.4 77.4 69 86.3v401.7c-136.8-200.2-370.9-542.7-375-549.2-21.9-33.9-21.9-96.7 0-131.6zm578.1-169.2c-20.2 0-36.5-16.3-36.5-36.5 0-20.1 16.3-36.4 36.5-36.4 20.1 0 36.4 16.3 36.4 36.4 0 20.2-16.3 36.5-36.4 36.5zm-184.3 398.4c-19.8 0-35.8-16-35.8-35.8 0-19.8 16-35.8 35.8-35.8 19.8 0 35.9 16 35.9 35.8 0 19.8-16.1 35.8-35.9 35.8zm367.9-161.4c-20.2 0-36.5-16.3-36.5-36.5 0-20.2 16.3-36.5 36.5-36.5 20.1 0 36.4 16.3 36.4 36.5 0 20.2-16.3 36.5-36.4 36.5z"/></svg>